<svg id="Layer_1" data-name="Layer 1" xmlns="http://www.w3.org/2000/svg" viewBox="0 0 100 100"><defs><style>.cls-1{fill:#351d0f;}</style></defs><title>logo</title><path class="cls-1" d="M64.71,78.66a2.4,2.4,0,0,1-1.76.68l-.76,0V80c2.87,0,7.13,0,9.59,0h.67c.17-.64.44-1.61,1.7-1.23a19.77,19.77,0,0,0,8.18,1.54c4.7.11,7.34-2.17,7.47-5,.1-2-1-4.12-6-5l-4.13-.71c-2-.33-5-.88-5-3.18,0-1.72,2.16-2.88,5.2-2.87,2.72,0,6.19,1.14,7.82,4.38H88l-.29-5h-.35c-.17.43-.34.94-.94,1-1.76.25-2.38-1-6.68-1-4.11,0-6.83,1.66-7.12,4.37-.19,1.76.77,4.21,5.92,5.12l4.78.83c3.93.68,4.33,2.45,4.33,3.45,0,2.07-2.87,3-5.54,3-3,0-7.38-.75-9.83-5.09H71.8l0,4.73h-.17v0l-1.11,0a2.42,2.42,0,0,1-1.76-.68,3.52,3.52,0,0,1-.42-2.28l0-9.72a3.56,3.56,0,0,1,.44-2.26,2.36,2.36,0,0,1,1.77-.68l.76-.05v-.58c-1,0-2.53.07-3.47.07l-2,0L58.55,76l-7-12.92h-3c-.7,0-2.26,0-3.08-.08v.58l.76.05a2.42,2.42,0,0,1,1.77.69,3.6,3.6,0,0,1,.42,2.26l0,9.35c0,1.46-.1,2.14-.43,2.57a2.14,2.14,0,0,1-1.77.75l-.67,0a4.33,4.33,0,0,1-2.63-1.28l-6.4-6.44c3-.12,5.38-1.75,5.39-4.4,0-4.86-6.08-4.12-12-4.14H28.32c-.67,0-2.14-.05-2.72-.08v.58l.72,0A2.21,2.21,0,0,1,28,64.3a3.65,3.65,0,0,1,.4,2.27l0,9.72A3.85,3.85,0,0,1,28,78.56a1.8,1.8,0,0,1-1.54.66c-1.68.08-2.67-1.53-3.65-3.55L16.3,62.48H15.25l-5.7,11.8c-1.67,3.47-2.63,4.81-4.76,4.92v.59c1.23,0,1.91-.07,2.53-.07h.8c.68,0,1.74,0,3.55,0v-.51l-.78,0C10,79.16,9,78.9,9,77.87c0-.55.44-1.36,1.43-3.4l.44-.88,7.7,0,1,2.12A6.07,6.07,0,0,1,20.39,78c0,.4-.35,1.15-1.77,1.2l-.7,0v.58c2,0,14,0,16.25.08v-.58l-.72,0c-1.45-.11-2.08-.36-2.08-3l0-4.28h.52a4.81,4.81,0,0,1,2.61,1.14l3.78,4.09c.29.31.55.64.83.94a4.77,4.77,0,0,1,.35.4c.14.13.26.26.37.38.29.3.58.63.87.94h4.85c1.08,0,4.91-.06,7.16,0v-.58l-.68,0c-2.64-.21-2.64-1.19-2.63-3.33l0-10.51L56.88,80h.31l8-14.44,0,10.89A3.51,3.51,0,0,1,64.71,78.66ZM11.19,72.82l3.5-7.25,3.43,7.26ZM31.7,71.41h-.31l0-7c0-.73.55-.73.92-.73h1c1.27,0,4,0,4.9,2.53a3.93,3.93,0,0,1,.26,1.39,3.62,3.62,0,0,1-.59,2C36.75,71.38,33.9,71.42,31.7,71.41Z"/><path class="cls-1" d="M28.56,93.56a3.21,3.21,0,0,1-.31-1.86l0-6.66a3.25,3.25,0,0,1,.32-1.87,1.63,1.63,0,0,1,1.28-.55l.55,0V82.1c-1.71.08-2.31.06-3.3.06s-1.59,0-3.3-.08v.48l.55,0a1.67,1.67,0,0,1,1.29.57A3.31,3.31,0,0,1,26,85v2.4l-8.08,0V85a3.35,3.35,0,0,1,.31-1.87,1.66,1.66,0,0,1,1.29-.55l.55,0v-.48c-1.7.08-2.3.06-3.3.06s-1.59,0-3.29-.08v.48l.55,0a1.67,1.67,0,0,1,1.28.57A3.21,3.21,0,0,1,15.6,85l0,6.66a3.19,3.19,0,0,1-.32,1.86,1.62,1.62,0,0,1-1.28.56l-.56,0v.48c1.71-.08,2.31-.06,3.3-.06s1.6,0,3.3.08v-.48l-.55,0a1.67,1.67,0,0,1-1.29-.57,3.31,3.31,0,0,1-.3-1.86V88.09l8.07,0v3.57a3.34,3.34,0,0,1-.32,1.86,1.64,1.64,0,0,1-1.29.56l-.55,0v.48c1.7-.08,2.3-.06,3.29-.06s1.6,0,3.3.07v-.47l-.55,0A1.58,1.58,0,0,1,28.56,93.56Z"/><path class="cls-1" d="M40.39,91.4l0-6.66-1.54.06c-.73,0-1.85,0-2.1-.07v.47l.39.09c1.15.23,1.24.67,1.23,1.93V90a2.94,2.94,0,0,1-1.06,2.47,3.68,3.68,0,0,1-2.2.81c-2,0-1.93-1.92-1.93-2.55v-6l-1.86,0-1.8-.06v.47l.35.07c1.33.23,1.3,1,1.3,2v3.51c0,.77-.08,3.32,3.22,3.33a5.09,5.09,0,0,0,4-1.94,8.14,8.14,0,0,0,.48,2,28.37,28.37,0,0,1,3.25-.76v-.5l-.51,0C41.2,92.92,40.38,92.91,40.39,91.4Z"/><path class="cls-1" d="M53.62,91.85v-4c0-1.2-.26-3.32-3.67-3.33a4.14,4.14,0,0,0-3.7,1.92A7.71,7.71,0,0,0,46,84.4a14.78,14.78,0,0,1-3.27.74v.47l.37,0c.75,0,1.34,0,1.33,1.89v4.3c0,.87-.26,1.39-1.22,1.49l-.42,0v.48c.47,0,1.22-.06,1.76-.06h1.87c.49,0,1.21,0,1.65.07v-.48l-.44-.06c-.7-.1-1.19-.17-1.19-1.48V88.68c0-.71,0-3.47,3.07-3.46a2.12,2.12,0,0,1,2.17,2.44v4.19c0,1-.22,1.39-1.23,1.49l-.42,0v.48c.47,0,1.22-.06,1.75-.06h1.87c.5,0,1.22,0,1.66.07v-.48l-.51,0C53.55,93.24,53.62,92.46,53.62,91.85Z"/><path class="cls-1" d="M59.75,93.54c-1.45,0-1.45-1.4-1.44-2.14v-6H61v-.54H58.32V82.49H58A6.4,6.4,0,0,1,55.33,85l-.25.14v.23h1.25l0,6.23c0,.89.15,2.51,2.93,2.52a2.91,2.91,0,0,0,2.46-1l.21-.29-.42-.29A2.22,2.22,0,0,1,59.75,93.54Z"/><path class="cls-1" d="M66,91.61l0-7.1c-1.08.29-1.87.45-3.81.8v.47l.7,0c.93,0,1.09.53,1.09,1.53V91.6c0,1.14-.07,1.78-1.29,1.84l-.42,0v.48c1,0,1.54-.06,2,0h1.4c.47,0,1,0,2,.07v-.48l-.42,0C66.11,93.39,66,92.75,66,91.61Z"/><path class="cls-1" d="M63.58,82.87a1.29,1.29,0,1,0,1.29-1.14A1.23,1.23,0,0,0,63.58,82.87Z"/><path class="cls-1" d="M80.83,93.51l-.51,0c-1.19-.1-1.12-.89-1.12-1.5l0-4c0-1.21-.28-3.33-3.68-3.34a4.16,4.16,0,0,0-3.7,1.93,7.32,7.32,0,0,0-.3-2.06,14.78,14.78,0,0,1-3.27.74v.47l.37,0c.75,0,1.34,0,1.33,1.89V92c0,.87-.26,1.39-1.22,1.49l-.42,0V94c.46,0,1.21,0,1.75,0h1.86c.5,0,1.22,0,1.66.07v-.48l-.44-.06C72.45,93.32,72,93.26,72,92V88.8c0-.71,0-3.47,3.07-3.46a2.12,2.12,0,0,1,2.17,2.44l0,4.19c0,1-.21,1.39-1.21,1.49l-.43,0V94c.47,0,1.22-.06,1.75-.06h1.88c.49,0,1.21,0,1.65.06Z"/><path class="cls-1" d="M90.71,84.87a4.16,4.16,0,0,0-2.31.88,5,5,0,0,0-3.08-1c-2.59,0-4.4,1.52-4.4,3.35a3.27,3.27,0,0,0,2.53,3.06c-1.28.19-2.1,1-2.1,1.94a1.53,1.53,0,0,0,.81,1.32,6.31,6.31,0,0,0,2.73.52c2.43.11,4.44.08,4.44,2.11,0,1.1-1,2.3-3.63,2.3-3.13,0-3.62-1.47-3.62-2.24a1.54,1.54,0,0,1,1.22-1.51,1.19,1.19,0,0,0-1-.38A1.73,1.73,0,0,0,80.57,97c0,1,.81,2.93,5.08,2.94,3.2,0,5.28-1.48,5.29-3.63,0-2.56-2.45-2.88-3.13-3-.46-.06-1-.08-1.42-.11A16,16,0,0,1,83,92.94a.59.59,0,0,1-.45-.54c0-.64.92-.76,1.45-.8s.94-.06,1.41-.08c3.52-.22,4.18-2,4.18-3.35a3.28,3.28,0,0,0-.78-2,2.07,2.07,0,0,1,1.05-.39,1.07,1.07,0,0,1,.7.4,1.24,1.24,0,0,0,.81.35.74.74,0,0,0,.73-.76C92.11,85.29,91.62,84.87,90.71,84.87ZM85.25,91c-.84,0-2.33-.38-2.32-2.87,0-1.56.85-2.9,2.34-2.9.87,0,2.33.4,2.33,2.91C87.59,90.46,86.21,91,85.25,91Z"/><path class="cls-1" d="M14.36,90.55l-.26-.21c-.35.32-2.1,1.91-3.32,1.87a5.47,5.47,0,0,1-2.55-1.45l.15-.18.83-1.14c.17-.24.73-1.12,1.17-1.12.22,0,.16.26.16.37a.62.62,0,0,0,.7.61.78.78,0,0,0,.81-.69c0-.49-.54-.84-1.12-.85-1.14,0-1.68.95-2.19,1.64l-.82,1.09L5.69,88.35c1-.54,2.1-1.38,2.1-2.4S6.91,84.3,5.67,84.3a2.23,2.23,0,0,0-2.43,2.06,3.81,3.81,0,0,0,1.09,2.42c-1.24.57-2.58,1.3-2.59,2.57,0,1,1.17,1.54,2.27,1.54a4.72,4.72,0,0,0,3.24-1.21A4.48,4.48,0,0,0,10,92.87C12.08,93,13.75,91.17,14.36,90.55ZM4.18,85.81A1.16,1.16,0,0,1,5.5,84.64a1.27,1.27,0,0,1,1.29,1.42,2.35,2.35,0,0,1-1.35,2A3.91,3.91,0,0,1,4.18,85.81Zm.72,6.51a1.62,1.62,0,0,1-1.75-1.54c0-.85.68-1.23,1.38-1.74l2.34,2.34.08.06A3.26,3.26,0,0,1,4.9,92.32Z"/><path class="cls-1" d="M75.07,43.83h0a1.52,1.52,0,0,0-.16-.23c-.61-.72-1.93-.78-3.19-.14a13.06,13.06,0,0,0-3.32,2.23c-.7.58-2,1.87-3.28,3.11-.09.09-.18.17-.26.26l-1.91-1.68-.28-.24-.22.29c-3.29,4.07-6.7,5.66-12.19,5.69s-8.89-1.62-12.17-5.69l-.22-.29-.28.24-2,1.74-.32-.31C34,47.57,32.68,46.28,32,45.69a13,13,0,0,0-3.29-2.22c-1.27-.64-2.58-.58-3.2.14a1.52,1.52,0,0,0-.16.23h0l0,.05h0a.52.52,0,0,0-.06.16l-2.39,5.83-.06.16.08.15a1.54,1.54,0,0,0,1.07.78,3.6,3.6,0,0,0,2.34-1.27,4,4,0,0,1,1.53,1A67.16,67.16,0,0,1,32.83,56l.24.29a3.44,3.44,0,0,0,.27-.27l1.9-2c3.93,3.86,8.35,5.54,14.54,5.64v0h.92v0c6.15-.1,10.55-1.76,14.47-5.57L67,56l.27.28.24-.29a67,67,0,0,1,5.08-5.35,4.06,4.06,0,0,1,1.53-1A3.6,3.6,0,0,0,76.46,51a1.54,1.54,0,0,0,1.07-.78l.09-.15-.07-.16L75.16,44a.76.76,0,0,0-.06-.16h0ZM25.75,49.18a2.9,2.9,0,0,1-1.83,1.08c-.15,0-.31-.16-.42-.3l2-5a3.9,3.9,0,0,0,.38.33l.11.09a5.65,5.65,0,0,0,1.69.79Zm7.42,2.06-.25.22.19,3.8a61.55,61.55,0,0,0-4.92-5.13,6.58,6.58,0,0,0-1.55-1l1.93-2.9.26-.4h0l-.47-.12A8.52,8.52,0,0,1,26.72,45l-.1-.07-.34-.24L26,44.48a.63.63,0,0,1-.15-.2s0-.09.13-.22c.39-.46,1.4-.45,2.35,0a12.29,12.29,0,0,1,3.15,2.12c.72.59,2,1.87,3.28,3.1l.28.28Zm32,1.88-.49.49C60.83,57.4,56.57,59,50.35,59h-.22c-6.26,0-10.53-1.62-14.41-5.46l-.49-.49c-.45-.48-.9-1-1.35-1.51l1.67-1.46.53-.46,1.67-1.47c3.32,4,7,5.65,12.48,5.67s9.17-1.68,12.49-5.67l1.61,1.41.52.45,1.74,1.53C66.13,52.1,65.65,52.62,65.18,53.12Zm7-3a61,61,0,0,0-4.91,5.13l.32-3.8-.25-.22-2-1.71.22-.22c1.26-1.23,2.56-2.51,3.26-3.09A12.65,12.65,0,0,1,72,44.09c1-.48,2-.49,2.36,0,.11.13.13.2.13.22a.64.64,0,0,1-.15.21l-.29.24-.32.23-.1.07a8.28,8.28,0,0,1-1.65.63l-.47.12h0l.27.4,1.92,2.9A6.79,6.79,0,0,0,72.15,50.13ZM76.84,50c-.11.13-.27.29-.42.29a2.92,2.92,0,0,1-1.83-1.08l-2-3a5.65,5.65,0,0,0,1.69-.79l.1-.09a2.91,2.91,0,0,0,.4-.33Z"/><path class="cls-1" d="M38.64,50.74l-2.57,1.62.43.41.66-.43.45.43-.43.65.44.41,1.55-2.58Zm-1.13,1.33,1.13-.81-.78,1.14Z"/><path class="cls-1" d="M41,53.54a.72.72,0,0,0-.18-1l-1-.64L38.24,54.3l.46.31.69-1,.33.22c.22.14.16.36,0,.54l-.19.28a.67.67,0,0,0-.15.47l.46.31,0-.07c-.11-.07,0-.26.16-.49l.21-.31a.49.49,0,0,0,0-.66C40.49,54,40.77,53.9,41,53.54Zm-1.08-.1-.31-.21.47-.7.29.2a.35.35,0,0,1,.12.56A.38.38,0,0,1,39.93,53.44Z"/><polygon class="cls-1" points="43.3 53.78 42.19 55.38 42.59 53.48 41.78 53.13 40.61 55.82 41.09 56.03 42.15 53.59 41.6 56.25 41.96 56.41 43.52 54.18 42.47 56.62 42.95 56.83 44.11 54.13 43.3 53.78"/><path class="cls-1" d="M45.37,54.4a.74.74,0,0,0-1,.53.85.85,0,0,0,.23.84l.4.43c.16.19.23.32.18.51a.3.3,0,0,1-.39.22c-.21,0-.37-.2-.27-.6l0-.11L44,56.09l0,.11a.85.85,0,0,0,.67,1.16.76.76,0,0,0,1.06-.56.9.9,0,0,0-.27-.93l-.46-.5a.37.37,0,0,1-.1-.37.26.26,0,0,1,.35-.17c.21.05.3.23.22.57v0l.51.13,0-.08A.79.79,0,0,0,45.37,54.4Z"/><path class="cls-1" d="M48.11,56.55A1.65,1.65,0,0,1,48,57l-.25-.57a.7.7,0,0,0,.44-.57.51.51,0,0,0-.46-.57.51.51,0,0,0-.62.47,1.06,1.06,0,0,0,.13.55.93.93,0,0,0-.55.72.7.7,0,0,0,.57.82.73.73,0,0,0,.59-.15l.07.18.49.05-.23-.53a1.63,1.63,0,0,0,.3-.8Zm-.71.93a.37.37,0,0,1-.29-.42.48.48,0,0,1,.28-.4l.32.72A.46.46,0,0,1,47.4,57.48Zm.19-1.39c0-.1-.11-.23-.09-.34a.15.15,0,0,1,.17-.15.18.18,0,0,1,.14.22A.38.38,0,0,1,47.59,56.09Z"/><polygon class="cls-1" points="50.73 55.02 50.74 56.16 50.01 56.17 50 55.03 49.45 55.03 49.47 57.97 50.03 57.97 50.01 56.61 50.75 56.6 50.76 57.96 51.31 57.95 51.28 55.02 50.73 55.02"/><path class="cls-1" d="M53.07,54.85l.23,2c0,.33,0,.49-.31.52s-.39-.12-.42-.44l-.23-2-.55.06L52,57.12c0,.54.37.81,1,.74s.88-.41.82-.94l-.24-2.13Z"/><path class="cls-1" d="M55.38,54.4l.24,1a5.65,5.65,0,0,0,.32,1l-1.28-1.9-.58.14.67,2.86.51-.12-.24-1a6.44,6.44,0,0,0-.32-1L56,57.28l.57-.13-.67-2.86Z"/><polygon class="cls-1" points="58.07 53.99 57.9 53.55 56.19 54.2 56.35 54.64 56.96 54.41 57.83 56.72 58.35 56.52 57.48 54.22 58.07 53.99"/><rect class="cls-1" x="58.84" y="53.1" width="0.55" height="2.94" transform="translate(-18.22 32.4) rotate(-26.71)"/><path class="cls-1" d="M60.23,52.2l.58.86a6.4,6.4,0,0,0,.67.87l-1.86-1.32-.5.33,1.64,2.44.43-.29-.58-.86a5,5,0,0,0-.67-.87l1.86,1.32.5-.33-1.64-2.44Z"/><path class="cls-1" d="M62.6,52l.3.31.27-.26.14.14c.27.28.29.48.11.65s-.41.14-.73-.19L62,52c-.28-.28-.31-.48-.11-.68s.37-.14.65.14L63,51,62.9,51a.84.84,0,0,0-1.3,0,.88.88,0,0,0,.06,1.41l.67.68c.52.53,1,.47,1.32.16a.59.59,0,0,0,.17-.71l.23.24.31-.3-1.11-1.12Z"/><path class="cls-1" d="M63.22,31.76c.56,0,.67.19.78.54.7-1.15-.73-1.64-1.3-2.1a4.14,4.14,0,0,1-1.52-4.84,1.84,1.84,0,0,1,1.08.81,2.5,2.5,0,0,0-1.46-2.68.77.77,0,0,1,.65,0,1.79,1.79,0,0,1,1.15.82A3.85,3.85,0,0,0,60,20.7a2.4,2.4,0,0,1,2.17,1.24,2.62,2.62,0,0,0-.48-2,3.3,3.3,0,0,0-2.49-1.5c.79-.83.52-1.69,1.46-2.78a2.09,2.09,0,0,0-.62-3,2.12,2.12,0,0,0-1.53-.19c-.92.19-1.87,1-2.29,1-.72-.11-.53-.9.17-.56a1.63,1.63,0,0,0-1.7-.49,1.84,1.84,0,0,0-.94.71.42.42,0,0,1-.42-.06c-.62-.46-.06-1.34,1-1-1.81-1.36-2.39.85-3,.56.21-.09.19-.47-.09-.7a.52.52,0,0,1-.7.42c-.7-.45.14-2.21-1.74-1.89-.79.2-.93,1.22-1.8,1.67a12.63,12.63,0,0,1-1.63.32,2.07,2.07,0,0,0-1.34.92c-1-.16-2.5-.38-3.53-.61a4.24,4.24,0,0,0-.82-.67,2.13,2.13,0,0,0-1.08.38,1.24,1.24,0,0,0-.45,1.31c-.22,0-.14.22-.2.36a2.74,2.74,0,0,0-.2,1.55l.4.45a6.4,6.4,0,0,0,.35,1.78s0,0,.13,0c0-.53,0-1.18.39-1.45a1.21,1.21,0,0,1,.79.31,2.75,2.75,0,0,0,0,1.12c.13.06.09,0,.16,0a2.54,2.54,0,0,1,.39-.81,4.93,4.93,0,0,0,.15,1.07c.15,0,.11,0,.16,0,.08-.45.2-.71.32-.76a3,3,0,0,1,.42,1.27c.11.06.24.15.36.2a.81.81,0,0,1,1.2-.18,1.45,1.45,0,0,1,.57.89,2.09,2.09,0,0,0-.69-.21c-.89-.13-1.35.31-2,.94a1.78,1.78,0,0,1-1.52.36,2.16,2.16,0,0,1-.44-1l-.23-.07a4.39,4.39,0,0,1,.11,1.21c-.07.34-.24.33-.57.55S38,22.49,38.12,23s.9.55,1.24.68l.21.42c.15.34.2.85.65,1a4.22,4.22,0,0,1,.87-.05c.92,0,1.21.44,1.27.86a2.52,2.52,0,0,1-1.54,2.24,1,1,0,0,0,1,0,2.84,2.84,0,0,1-.93,1.25,2.06,2.06,0,0,0,1.37,0c-.55.89-1.74.75-2.39,1.92.28.07.4.13.46.26a3.38,3.38,0,0,0-1.09,1.66c-.18.71-.17.88-.31,1.33A7,7,0,0,1,35.52,39c.75,2.72,3.22,4.2,7.13,4.87a6.25,6.25,0,0,1,.51-2.75c-1.91-1.29-2.26-4.19-2.13-6a8.66,8.66,0,0,1,1.07-3.32c-.79.18-1.37,1.19-1.54,1.66.06-.84.41-2.11,2.33-4.05a1.24,1.24,0,0,0,.38-.74.21.21,0,0,0-.09-.21c-.17-.06-.27.11-.4.2a1.64,1.64,0,0,1-1,.37,4.2,4.2,0,0,0,1.18-2.67,1.48,1.48,0,0,0,.81,1.36c-.22-.63-.07-.92.27-1.18a.94.94,0,0,0,.25.94c.06-.25.38-.52.61-.24a3.45,3.45,0,0,1,0,2.67,3.65,3.65,0,0,1-.67,1,1.84,1.84,0,0,0-.17-1.28,4.91,4.91,0,0,0-.19,4.85,4.93,4.93,0,0,1,.4-2.74c0,.2.28.94.64,1.09A2.35,2.35,0,0,1,45.74,31a1.94,1.94,0,0,0,.78,1.75,3.23,3.23,0,0,1,.44-2.3,2.85,2.85,0,0,0,2.27,2.88,3.41,3.41,0,0,1-1-3,1.72,1.72,0,0,0,2,1.3,3.79,3.79,0,0,1-1.4-3.08,1.73,1.73,0,0,0,2.38.88c-.95-.35-1.29-1.91-.95-2.9.14.74.51,1.5,1.51,1.54-1.07-1.26.08-1.62-.63-3.08,1.78.84.76,2.25,1.87,2.94a2.52,2.52,0,0,0,1,.39A1.53,1.53,0,0,1,53.41,27a15.88,15.88,0,0,1,0-1.84c.17-2.33-1.63-1.82-1.46-3.81a3.3,3.3,0,0,0,1.19.87,1.87,1.87,0,0,0,1.43-.07A1.38,1.38,0,0,1,53.51,21c-.19-1.23-1.13-.95-1.06-2.24,0,0,.22.68,1.49.48-.82-.46-.15-.65-.75-1.23-.35-.27-.72-.13-.92-.68.37.24.61.12.92.14.51,0,.65.42,1.11.57,1,.18,1-.48,1.51-.44.18,0,.34.17.32.44.94.55,1.21-.32,1.21-.78.35.23,1.16.38,2-.67-.28,1.4-1.16,2.45-2.19,2.08,0,.45.58.59,1,.59-1.63.9-2.1-1.09-3.35-.41a3.13,3.13,0,0,1,1.52,1.75,2.76,2.76,0,0,0-1.77-.38.62.62,0,0,1-.77-.18c-.1.52.69,1.2,1.22,1.3,2.21.59.85,2.31,2.62,3.12a2.23,2.23,0,0,1-2.48-1.31,1.7,1.7,0,0,0,.14,1.36c.8,1,2.42.78,2.13,2.48a1.48,1.48,0,0,0-1-.77c-.36-.09-.91.15-.95.42a1.83,1.83,0,0,1,1.69,1,2.53,2.53,0,0,1-.23,2.44c0-.82,0-1-.36-1.41s-.63-.1-1.09-.48a1.21,1.21,0,0,1-.29-.89,3.59,3.59,0,0,0,2.42,4.27s-3.67.51-4.13-2.08a2.2,2.2,0,0,0,.84,2.71,2.08,2.08,0,0,1-2.38-2.17,3.69,3.69,0,0,0-.24,2.53c.68,1.83,1.11,1.25,2,3.19a5.51,5.51,0,0,1,.14,3.29,1.43,1.43,0,0,0-.71-.64c.29,1.19-.29,1.92-.1,3-1.42-1.37.17-4-1.73-5.75.22.88-.25,1.16.19,2.29-1.19-.49-1.77-1.74-1.74-3.32a2.62,2.62,0,0,0-.49,1.63,2.77,2.77,0,0,1-1.42-2.77,2.51,2.51,0,0,0-.12,3.1s-1.93-.61-2-4a8.45,8.45,0,0,0,1.28,7.6,4.55,4.55,0,0,0,2.91,1.43c-.91-.79-2.08-2.57-1.1-3.59A3.42,3.42,0,0,0,50.63,41c-.15-.59-.28-1.07,0-1.47.5,2.6,2.57,2.89,2.52,5.28.24-.07.51-.13.8-.19a5,5,0,0,1,.13-1.52.68.68,0,0,0,.32.14,4.74,4.74,0,0,1,.55-3.07c1.29,1.65.6,4.12.61,4.14,3.84-.64,6.59-1.45,8.17-3.06a.86.86,0,0,1,.14-.76c.15-.22.64-.35.5-1.1-.07-.19.1-.8.36-.41a15.1,15.1,0,0,0-.09-4.21A11.23,11.23,0,0,0,63.22,31.76ZM57.44,14.63a2.74,2.74,0,0,0-.59.78A1.79,1.79,0,0,0,55,15.7a2.65,2.65,0,0,1,1.85.72c-1.3-.34-1.17.67-2.37.77-.95.08-1.08-1-3.18-1.05a1.51,1.51,0,0,1-1.51-.7,1,1,0,0,0,.26,1.19c-.49.7-1.76.46-2.49-.28a.88.88,0,0,0-.1.22,4.12,4.12,0,0,1,1.36,1.74c.46,1.11.56,2,1.75,2.16-1.82.56-1.68-1.18-2.83-.77a9.33,9.33,0,0,1,1.72,2.08,3.16,3.16,0,0,1,.27,2.88.84.84,0,0,0-1-.43c.45.53.14,1.1.2,1.63,0,0-.35-.75-.8-.85.35,1.38-.46,1.86,0,3.06a2,2,0,0,1-1.6-2.26s-.87.54-.78,2.37c-.26-2-.85-1.9-1.19-1.89.08-.28.05-.61-.26-.69a.45.45,0,0,0-.47.31c0-.54-.37-.57-.05-1.23-.78.16-.25.88-.92,1.18a1,1,0,0,0-.26-.8,3,3,0,0,0-2.09-.55c-.38,0-.34-.38-.47-.63a1.64,1.64,0,0,1,.68-.31,3.54,3.54,0,0,1,1.78.11,1.23,1.23,0,0,0-.12.75,1.23,1.23,0,0,1,.75-.49,2.61,2.61,0,0,1,2.58.57c.18.21.35.43.62.36.52-.21-.46-1.36.55-2a1.24,1.24,0,0,0,1.47.67,2.52,2.52,0,0,1-.91-1.41,5.18,5.18,0,0,1-.11-1.58,3.34,3.34,0,0,0-.65-1.93,10.38,10.38,0,0,0-3.07-2.4,5.65,5.65,0,0,0-2.5-.65A5.94,5.94,0,0,1,43.43,17a20.73,20.73,0,0,0,1.5,1.8.36.36,0,0,0,.38.09c.1-.07.17-.12.14-.28l-.09-.16a1,1,0,0,1,.85.67,2,2,0,0,1,.18,1.56.78.78,0,0,1-.68.51c-.78,1.24-1.14.55-2.23,1.18a1.78,1.78,0,0,0-.73.81,4.54,4.54,0,0,0-1.24-.13,6.62,6.62,0,0,0-1.49.22c-.38.15-.44-.09-.61-.16a4.66,4.66,0,0,0-.75-.23,1.79,1.79,0,0,1-.1-1.19c.54-.39,1.3-.14,1.81,0a4.17,4.17,0,0,0,2.94-.37,1.45,1.45,0,0,0,.76-1.21A2,2,0,0,0,43,18.27l0-.19-1.09-.42a10.25,10.25,0,0,0-1.14-1.23c-1-.78-1.48-.77-1.88-.54-.19,0-.16,0-.27-.13s-.33-.24-.39-.44a1.93,1.93,0,0,1,.22-1.11c.1,0,.15.12.27.07s.14-.23,0-.47v-.6c.2-.33.67-.65,1-.52l.27.31a2.53,2.53,0,0,0-.64.79,3.26,3.26,0,0,0,.22.34,3.06,3.06,0,0,1,.76-.58,9.42,9.42,0,0,1,2.07.22,8,8,0,0,1,1.32.31c.39.73,1.16,1,1.62,1.62a4.59,4.59,0,0,1,1.67.49l.09-.13c-.48-.36-1-.66-1.09-.79a1,1,0,0,1-.34-.85.48.48,0,0,0,.67-.2c.21-.46.43-.71.85-.67a1,1,0,0,1,.66.32c0-.28.32-.52.6-.17A3.06,3.06,0,0,0,50.5,15a2.93,2.93,0,0,0,1.16-.28c-1.48-.06-1.61-.56-2.27-1.36a1.22,1.22,0,0,0-1-.52,3,3,0,0,1,2.88.88,1,1,0,0,0,1.19.31,3.38,3.38,0,0,1,3.25.32,4.24,4.24,0,0,0-3.48.88,1.29,1.29,0,0,1,.77.4,1.74,1.74,0,0,0,2.07.55,1.79,1.79,0,0,1-1.45-.91,4.82,4.82,0,0,0,3-.7c2.82-2.66,4.35-.78,3.14.84C59.81,14.06,58.37,13.83,57.44,14.63Z"/><path class="cls-1" d="M48.77,14.68a1.1,1.1,0,0,0-1.13.06.85.85,0,0,1-.94.09.27.27,0,0,0,.08.36c.18.13.43.08.57.3a.38.38,0,0,0,.4.16.45.45,0,0,1-.19-.32.27.27,0,0,1,.19-.26.36.36,0,0,1,.48.17.39.39,0,0,1-.15.45l1.16.58A1.23,1.23,0,0,0,48.77,14.68Z"/><path class="cls-1" d="M99.23,49.24l-9.48-6.16c-1.12-.71-2.86-.42-3.42-.53a1.83,1.83,0,0,1-1-.45,33.22,33.22,0,0,1-2.15-2.81,44.51,44.51,0,0,0-4.11-4.52,1.11,1.11,0,0,1,0-1.1,2,2,0,0,0,0-1.25.38.38,0,0,1,.23-.45c.45-.22,1.05.37,1.12.46a1.19,1.19,0,0,0-.54-1.72,2,2,0,0,0-1.68,0A2.41,2.41,0,0,0,76.4,30a3.09,3.09,0,0,0-1.59.48l-8.08-4.52c0-6.81,0-11.64,0-14.95l14-8.54A2.84,2.84,0,0,0,80.51,1a2,2,0,0,0-1.2-.92L66.71,7.14c0-1.55,0-2.23,0-2.25a.24.24,0,0,0-.22-.13H34.05a.25.25,0,0,0-.23.13s0,.77,0,2.53L20.7.08A2,2,0,0,0,19.49,1a2.84,2.84,0,0,0-.2,1.42l14.49,8.84c0,3.25,0,7.92,0,14.37l-8.57,4.8A3.15,3.15,0,0,0,23.61,30a2.41,2.41,0,0,0-1.86.78,2,2,0,0,0-1.68,0,1.19,1.19,0,0,0-.54,1.72c.07-.09.68-.68,1.12-.46a.37.37,0,0,1,.22.45,2,2,0,0,0,0,1.25,1.11,1.11,0,0,1,0,1.1,44.51,44.51,0,0,0-4.11,4.52,31.25,31.25,0,0,1-2.15,2.81,1.83,1.83,0,0,1-.95.45c-.56.11-2.29-.18-3.41.53L.78,49.24C-.37,50.37,0,53.17.34,55a11.5,11.5,0,0,0,1.25,3.58c.32.52,1,1.18,1.54.82s4-4.07,6.41-6.84l3.27-3.73s1.3-1.28,2.19-2.12a16.47,16.47,0,0,1,2.34-2c.37-.19.66-.46,1.05-.39a.42.42,0,0,1,.36.44A3.7,3.7,0,0,0,19,46.46a1,1,0,0,0,1.7.26c.52-.82.09-1.29-.27-2.25A1.58,1.58,0,0,1,21,42.69a4.74,4.74,0,0,1,1.47-1c1.56-.59,3.27-.3,5.11-.77a4.38,4.38,0,0,0,3.18-3c.42-1.06.43-1.83,1-2.07.54-.07.27-.07.66,0l.05-.18a1,1,0,0,0-1.09-.27c-.31.08-.27-.22-.53-.8a1.45,1.45,0,0,0-.48-.57c.85-.64,2-1.46,3.34-2.37v6.77c0,5.29,4.06,6.91,11,8.07l.32.06a10.23,10.23,0,0,1,3.69,1.1,2.79,2.79,0,0,1,1.47,2h.08a2.78,2.78,0,0,1,1.48-2,10.18,10.18,0,0,1,3.67-1.1l.33-.06c6.9-1.16,11-2.78,11-8.07q0-3.42,0-6.42c1.11.76,2.1,1.46,2.84,2a1.45,1.45,0,0,0-.48.57c-.26.58-.22.88-.53.8a1,1,0,0,0-1.09.27l0,.18c.4-.08.12-.08.66,0,.61.24.63,1,1,2.07a4.4,4.4,0,0,0,3.18,3c1.83.47,3.56.18,5.11.77a4.74,4.74,0,0,1,1.47,1,1.59,1.59,0,0,1,.62,1.78c-.37,1-.8,1.43-.27,2.25A1,1,0,0,0,81,46.46a3.55,3.55,0,0,0,.23-1.62.42.42,0,0,1,.36-.44c.39-.07.68.2,1,.39a15.91,15.91,0,0,1,2.34,2c.89.84,2.19,2.12,2.19,2.12l3.27,3.73c2.38,2.77,6,6.54,6.41,6.84s1.22-.3,1.54-.82A11.5,11.5,0,0,0,99.66,55C100,53.17,100.37,50.37,99.23,49.24Zm-89-5.68a3.5,3.5,0,0,1,1.56-.43L3.22,49.8c.06.22.1.44.14.58l7-5.43-.07.45L2.68,52l-.05,0a8.51,8.51,0,0,0-1.24-2.76ZM1.32,56.36a19.42,19.42,0,0,1-.68-4.81,6.78,6.78,0,0,0,.47,1.9A3.39,3.39,0,0,0,2,54.75a14,14,0,0,0,.8,3.79C2.53,59,1.62,57.34,1.32,56.36Zm1.44-3.93,7.68-6.33v.36l-7.54,6.6ZM3.09,54l0,0,0-.4L9,48.51c0,.22,0,.16,0,.34Zm7.65-3.76L3.51,57.64l0-.69c1.25-1.23,6.59-6.48,7.28-7.09C10.77,50.1,10.72,50.19,10.74,50.27Zm1.44-3.33L3.25,55.66l-.12-.91,9.08-8.07ZM24,30.43a2.46,2.46,0,0,1,1.7,1,6.87,6.87,0,0,0-.63.45,1.76,1.76,0,0,0-1.3-1.09A2.54,2.54,0,0,0,24,30.43Zm2.6,1.3a2.65,2.65,0,0,1,2.11-.65c.38.23.23.56.13.8a5,5,0,0,1-1.58,1.48,24.29,24.29,0,0,1-3.14,1.83c.13-.47-.12-1.4-.72-1.42.41-.35,1.05-.92,1.36-1.21a1,1,0,0,0,1.12,1.15,1.39,1.39,0,0,0,1-.76A1.15,1.15,0,0,0,26.61,31.73ZM26.35,33a.73.73,0,0,1-1,.07l1-1.09A.74.74,0,0,1,26.35,33ZM24.54,32s-.9.76-1.64,1.34c-.18-.21-.54-1-.16-1.5A1.18,1.18,0,0,1,24.54,32ZM21,31.57a1.07,1.07,0,0,0-1.22.23.8.8,0,0,1,.92-.84,1.81,1.81,0,0,1,1.14.37,1.87,1.87,0,0,1,1.74-1l-.19.37a1.65,1.65,0,0,0-.81.3,1.9,1.9,0,0,0-.78,1.23,2.19,2.19,0,0,0,.4,1.65,1.07,1.07,0,0,1,1.26.78,1.18,1.18,0,0,1-.8,1.57,1,1,0,0,1-1.2-.42,1.47,1.47,0,0,1,.15-1.56,2.1,2.1,0,0,1-.37-1.53C21.34,32.25,21.55,31.92,21,31.57Zm-.23,4a1.3,1.3,0,0,0,1,1.35c-.35.42-1.54.94-1.25,1.73a2,2,0,0,1-.62.19C19.76,38.07,20.52,36.16,20.79,35.52ZM19.23,38.7c.14.23.28.47.58.49-.12.08-.23.28-.36.23S19.18,39.1,19,39Zm-2.47,2.81.21-.26c.13,0,.21.21.33.3-.05.12-.22.19-.31.3C16.9,41.76,16.61,41.66,16.76,41.51Zm0,.64c-.11.09-.17.25-.3.34-.32-.17-.09-.39,0-.56C16.56,41.94,16.62,42.1,16.72,42.15Zm.53-1.2.38-.45.4.37c-.11.11-.34.52-.55.3A.69.69,0,0,1,17.25,41Zm.64-.72a1.17,1.17,0,0,1,.29-.39c.22,0,.35.26.51.42a4.26,4.26,0,0,1-.37.34A3.09,3.09,0,0,0,17.89,40.23Zm.55-.66.31-.35.47.51A1.21,1.21,0,0,1,19,40,2.42,2.42,0,0,0,18.44,39.57Zm.32-1.67c.07.16.08.36.21.48l-.28.27a1.08,1.08,0,0,1-.2-.4C18.62,38.11,18.69,38,18.76,37.9Zm-.6.65c.12.14.24.23.35.37l-.37.39a2.14,2.14,0,0,1-.3-.39Zm-.6.64a1.75,1.75,0,0,0,.34.38l-.28.36c-.14,0-.2-.32-.39-.33C17.33,39.47,17.43,39.33,17.56,39.19Zm-.53.67c.12.12.2.27.32.38l-.4.41a1.45,1.45,0,0,1-.25-.36Zm-.57.82c.07.12.17.17.24.29l-.3.37a.53.53,0,0,1-.18-.28ZM16,41.4a3.45,3.45,0,0,1,.23.28l-.2.23c-.15-.06-.08-.25-.15-.35Zm0,1.19.16.19-.3.29-.11-.1A2.78,2.78,0,0,1,16,42.59Zm-.47-.68.2.36-.32.43a1.41,1.41,0,0,1-.2-.35Zm7.31-1.28c-1.58,1.1-3.25,2.29-2.88,3.69a10.59,10.59,0,0,1,.36,1.17c.05.36.05.65-.21.86s-1,0-.78-1.27c.08-.63-.18-1-1-1.21a49.47,49.47,0,0,1,4.83-4.31A1.08,1.08,0,0,1,22.82,40.63Zm5.81-1.26a3.74,3.74,0,0,1-3.67.78A1.8,1.8,0,0,1,24,38.89c.35-.26.64-.5,1.08-.81a1.43,1.43,0,0,0-.05.78,1.21,1.21,0,0,0,1.31,1c.31-.21-.23-.24-.56-.64a1.23,1.23,0,0,1-.12-1.19,2.09,2.09,0,0,1,.38-.74,8.19,8.19,0,0,1,1.26-1,2.84,2.84,0,0,1,1.24-.61c.39-.06.74.06,1,.74A2.75,2.75,0,0,1,28.63,39.37Zm2.25-3.26a5.73,5.73,0,0,1-.47,1.78c-.08,0,0,0-.18,0a2.6,2.6,0,0,0-.41-2.31,1.1,1.1,0,0,0-1.07-.27s.78-.51,1.09-.78A1.59,1.59,0,0,1,30.88,36.11ZM33.77,31l-6.34,4.49S25,37.3,22.21,39.66,15,46.24,13.44,47.75l.1-.6s5.38-5.7,8.81-8.56a138.15,138.15,0,0,1,11.42-8.44Zm0-3.95L31.1,28.59c0,.17,0,.25,0,.39l2.68-1.52v.87l-2.28,1.33c0,.19,0,.35,0,.49l2.3-1.33v.68l-4.06,2.41s.32-1-.16-1.45-1.12-.29-1.84.06-1.53.85-1.53.85L25.86,31l4.48-2.66,3.43-1.95Zm0-18L19.94,1.13c.08-.21.09-.3.28-.42a1.14,1.14,0,0,1,.43-.15L33.79,8.08C33.78,8.37,33.78,8.68,33.78,9ZM66,38.26c0,5-3.65,6.55-10.32,7.67l-.33.06a10.81,10.81,0,0,0-3.88,1.17,3.45,3.45,0,0,0-1.24,1.13A3.45,3.45,0,0,0,49,47.16,10.74,10.74,0,0,0,45.13,46l-.33-.06c-6.67-1.12-10.29-2.67-10.32-7.67,0-10,0-30.6,0-32.78H66C66,7.66,66,28.24,66,38.26ZM66.71,7.8,79.35.56a1.14,1.14,0,0,1,.43.15c.19.12.2.21.29.42L66.71,8.72ZM84.49,41.91l.32.44a1.15,1.15,0,0,1-.2.35l-.31-.43Zm-.44-.51.12.16c-.06.1,0,.29-.15.35l-.19-.23A2.09,2.09,0,0,1,84.05,41.4ZM84.27,43l-.11.1-.3-.29.16-.19A2.78,2.78,0,0,1,84.27,43Zm-.49-1.91a.53.53,0,0,1-.18.28L83.3,41c.07-.12.17-.17.24-.29Zm-2-1.22a1.2,1.2,0,0,1,.3.39,3.19,3.19,0,0,0-.44.37c-.11-.12-.28-.23-.37-.34C81.47,40.1,81.6,39.88,81.82,39.84Zm-.77.18a1.21,1.21,0,0,1-.27-.29l.48-.51.3.35A2.7,2.7,0,0,0,81.05,40Zm1.32.48.38.45a.69.69,0,0,1-.23.22c-.21.22-.44-.19-.54-.3Zm.66.75.21.26c.16.15-.14.25-.23.34-.09-.11-.26-.18-.31-.3C82.82,41.46,82.9,41.3,83,41.25Zm.51.68c.14.17.36.39,0,.56-.14-.09-.2-.25-.31-.34C83.38,42.1,83.44,41.94,83.54,41.93Zm-.23-1.64a1.27,1.27,0,0,1-.26.36l-.4-.41c.12-.11.21-.26.32-.38Zm-.87-1.1c.13.14.23.28.34.41-.2,0-.26.28-.4.33l-.28-.36A1.75,1.75,0,0,0,82.44,39.19Zm-.28-.27a1.77,1.77,0,0,1-.3.39l-.37-.39c.11-.14.24-.23.35-.37Zm-.92-1c.07.05.14.21.27.35a1.08,1.08,0,0,1-.2.4L81,38.38A1.16,1.16,0,0,0,81.24,37.9Zm-.47.8L81,39c-.17.14-.22.38-.44.46s-.24-.15-.36-.23C80.49,39.17,80.63,38.93,80.77,38.7Zm-1.56-3.18c.27.64,1,2.55.85,3.27a1.9,1.9,0,0,1-.62-.19c.3-.79-.9-1.31-1.25-1.73A1.3,1.3,0,0,0,79.21,35.52Zm-1.07-4.19A1.82,1.82,0,0,1,79.29,31a.81.81,0,0,1,.92.84A1.09,1.09,0,0,0,79,31.57c-.53.35-.32.68-.24,1.16a2.1,2.1,0,0,1-.37,1.53,1.47,1.47,0,0,1,.16,1.56,1,1,0,0,1-1.21.42,1.19,1.19,0,0,1-.8-1.57,1.07,1.07,0,0,1,1.26-.78,2.19,2.19,0,0,0,.4-1.65A1.93,1.93,0,0,0,77.41,31a1.69,1.69,0,0,0-.81-.3l-.2-.37A1.87,1.87,0,0,1,78.14,31.33Zm-2.27,3.86a24.29,24.29,0,0,1-3.14-1.83,5,5,0,0,1-1.58-1.48c-.1-.24-.25-.57.14-.8a2.63,2.63,0,0,1,2.1.65A1.2,1.2,0,0,0,73.14,33a1.41,1.41,0,0,0,1,.76,1,1,0,0,0,1.11-1.15c.31.29,1,.86,1.37,1.21C76,33.79,75.75,34.72,75.87,35.19ZM73.71,32l1,1.09a.73.73,0,0,1-1-.07A.74.74,0,0,1,73.71,32Zm3.55-.22c.39.49,0,1.29-.16,1.5-.74-.58-1.63-1.34-1.63-1.34A1.17,1.17,0,0,1,77.26,31.8ZM76,30.43a4.38,4.38,0,0,0,.22.4c-.56.17-1.18.54-1.29,1.09a6.87,6.87,0,0,0-.63-.45A2.46,2.46,0,0,1,76,30.43Zm-9.26-1.32,1.8,1c0-.14,0-.3,0-.49l-1.79-1v-.88L68.92,29a1.23,1.23,0,0,1,0-.39l-2.17-1.25v-.68l2.94,1.66L74.14,31c-.12.14-.28.35-.31.39s-.82-.49-1.54-.85-1.37-.51-1.84-.06-.15,1.45-.15,1.45l-3.57-2.12Zm3,8.76c-.22,0-.1,0-.18,0a5.46,5.46,0,0,1-.47-1.78,1.59,1.59,0,0,1,1-1.6c.31.27,1.09.78,1.09.78a1.1,1.1,0,0,0-1.07.27A2.63,2.63,0,0,0,69.77,37.87ZM75,40.15a3.73,3.73,0,0,1-3.66-.78,2.75,2.75,0,0,1-.92-2.93c.24-.68.59-.8,1-.74a2.79,2.79,0,0,1,1.24.61,7.74,7.74,0,0,1,1.26,1,1.94,1.94,0,0,1,.38.74,1.26,1.26,0,0,1-.11,1.19c-.33.4-.89.43-.57.64a1.2,1.2,0,0,0,1.31-1,1.26,1.26,0,0,0,0-.78c.44.31.73.55,1.08.81A1.76,1.76,0,0,1,75,40.15Zm5.66,4.93c.22,1.23-.53,1.48-.78,1.27a.86.86,0,0,1-.21-.86,11.06,11.06,0,0,1,.37-1.17c.37-1.4-1.31-2.59-2.89-3.69a1.08,1.08,0,0,1-.33-1.07,50.27,50.27,0,0,1,4.84,4.31C80.87,44.05,80.61,44.45,80.69,45.08Zm-2.9-5.42c-2.74-2.36-5.22-4.17-5.22-4.17l-5.84-4.13v-.88c4.33,2.86,8.84,6.37,10.92,8.11,3.43,2.86,8.81,8.56,8.81,8.56l.1.6C85,46.24,80.53,42,77.79,39.66Zm12,3.9,8.82,5.68A8.73,8.73,0,0,0,97.37,52l-.05,0-7.6-6.57L89.65,45l7,5.43c0-.14.08-.36.14-.58l-8.56-6.67A3.51,3.51,0,0,1,89.79,43.56Zm6.7,14.08-7.23-7.37c0-.08,0-.17,0-.41.7.61,6,5.86,7.28,7.09Zm.26-2-8.92-8.72,0-.26,9.08,8.07Zm.18-1.61,0,0-5.84-5.18c0-.18,0-.12,0-.34L97,53.65Zm-7.38-7.59,0-.36,7.67,6.33-.15.63Zm9.13,9.9c-.3,1-1.21,2.66-1.47,2.18A14.53,14.53,0,0,0,98,54.75a3.47,3.47,0,0,0,.9-1.3,7.55,7.55,0,0,0,.47-1.9A19.15,19.15,0,0,1,98.68,56.36Z"/><path class="cls-1" d="M77.56,34.38a.73.73,0,1,0,.73.73A.73.73,0,0,0,77.56,34.38Zm0,1a.32.32,0,1,1,.31-.31A.31.31,0,0,1,77.56,35.42Z"/><path class="cls-1" d="M22.44,35.84a.73.73,0,1,0-.73-.73A.73.73,0,0,0,22.44,35.84Zm0-1.05a.32.32,0,1,1,0,.63.32.32,0,0,1,0-.63Z"/></svg>